<?xml version="1.0" standalone="no"?>
<!DOCTYPE svg PUBLIC "-//W3C//DTD SVG 20010904//EN"
 "http://www.w3.org/TR/2001/REC-SVG-20010904/DTD/svg10.dtd">
<svg version="1.0" xmlns="http://www.w3.org/2000/svg"
 width="120.000000pt" height="120.000000pt" viewBox="0 0 120.000000 120.000000"
 preserveAspectRatio="xMidYMid meet">
<metadata>
Created by potrace 1.11, written by Peter Selinger 2001-2013
</metadata>
<g transform="translate(0.000000,120.000000) scale(0.100000,-0.100000)"
fill="#000000" stroke="none">
<path d="M473 1166 c-116 -27 -206 -78 -294 -168 -43 -45 -99 -125 -99 -142 0
-3 10 -6 23 -6 32 -1 65 -22 88 -56 62 -94 -36 -206 -148 -170 -19 6 -23 4
-23 -14 0 -39 78 -47 142 -15 17 8 35 15 39 15 28 0 88 -104 89 -152 l0 -28
-116 1 c-64 0 -118 -2 -121 -5 -17 -17 63 -159 128 -226 40 -42 102 -90 115
-90 6 0 15 20 22 44 11 44 63 120 94 140 13 8 26 5 56 -11 73 -42 168 -38 234
8 l27 19 37 -37 c40 -41 84 -125 84 -160 0 -31 14 -29 72 8 70 45 154 143 194
225 19 39 34 74 34 78 0 3 -63 6 -140 6 l-141 0 7 38 c8 45 25 80 59 120 l26
31 32 -19 c42 -25 79 -31 119 -19 45 13 58 22 63 47 5 27 -9 37 -25 17 -6 -8
-27 -19 -46 -25 -51 -17 -116 16 -138 69 -31 78 15 148 104 159 l51 7 -39 60
c-71 110 -192 201 -321 241 -68 22 -214 26 -288 10z m141 -55 c19 -16 21 -62
4 -79 -31 -31 -101 1 -93 43 2 11 4 24 4 28 1 9 41 25 57 23 7 -1 19 -8 28
-15z m42 -126 c8 -10 14 -27 14 -37 0 -16 -10 -18 -95 -18 -52 0 -95 2 -95 5
0 3 6 21 14 39 14 33 14 33 81 31 53 -1 70 -5 81 -20z m-239 -7 c33 -31 32
-90 -3 -117 -82 -65 -177 44 -107 122 23 24 81 22 110 -5z m418 16 c22 -9 45
-57 40 -85 -6 -31 -50 -69 -78 -69 -53 0 -95 58 -76 107 17 46 65 66 114 47z
m-529 -163 c17 -18 74 -22 102 -8 36 19 49 13 72 -34 38 -73 37 -74 -112 -74
-77 -1 -136 3 -140 9 -12 18 39 116 62 116 3 0 10 -4 16 -9z m445 -6 c32 -17
62 -16 97 4 19 10 26 10 38 0 22 -18 44 -64 44 -91 0 -23 0 -23 -135 -23
l-135 0 0 25 c0 23 43 100 56 100 3 0 18 -7 35 -15z m-110 -209 c83 -35 120
-126 85 -210 -59 -141 -264 -128 -305 19 -36 131 94 244 220 191z"/>
<path d="M439 47 c21 -21 164 -30 259 -15 40 6 70 13 67 17 -3 3 -80 5 -170 6
-90 0 -161 -3 -156 -8z"/>
</g>
</svg>
